<svg width="462" height="465" viewBox="0 0 462 465" fill="none" xmlns="http://www.w3.org/2000/svg">
<path d="M462 355.633H0V355.865H462V355.633Z" fill="#E0E0E0"/>
<path d="M101.102 366.783H47.7227V367.016H101.102V366.783Z" fill="#E0E0E0"/>
<path d="M217.749 361.732H193.43V361.965H217.749V361.732Z" fill="#E0E0E0"/>
<path d="M274.023 361.613H226.641V361.846H274.023V361.613Z" fill="#E0E0E0"/>
<path d="M364.213 364.402H352.672V364.635H364.213V364.402Z" fill="#E0E0E0"/>
<path d="M312.819 364.402H266.785V364.635H312.819V364.402Z" fill="#E0E0E0"/>
<path d="M119.194 366.783H110.047V367.016H119.194V366.783Z" fill="#E0E0E0"/>
<path d="M411.717 364.402H371.754V364.635H411.717V364.402Z" fill="#E0E0E0"/>
<path d="M218.987 314.154H40.5715C39.1738 314.152 37.8342 313.591 36.8467 312.596C35.8593 311.6 35.3047 310.251 35.3047 308.844V56.4142C35.3169 55.0155 35.8768 53.6781 36.863 52.6925C37.8491 51.707 39.1818 51.1528 40.5715 51.1504H218.987C220.386 51.1504 221.728 51.7099 222.717 52.7057C223.707 53.7016 224.263 55.0523 224.263 56.4607V308.844C224.263 310.252 223.707 311.603 222.717 312.599C221.728 313.595 220.386 314.154 218.987 314.154ZM40.5715 51.3364C39.2351 51.3389 37.9542 51.8749 37.0101 52.8269C36.0659 53.7789 35.5357 55.0691 35.5357 56.4142V308.844C35.5357 310.189 36.0659 311.479 37.0101 312.431C37.9542 313.383 39.2351 313.919 40.5715 313.922H218.987C220.324 313.919 221.606 313.384 222.551 312.432C223.497 311.48 224.029 310.19 224.032 308.844V56.4142C224.029 55.0682 223.497 53.7781 222.551 52.8264C221.606 51.8746 220.324 51.3388 218.987 51.3364H40.5715Z" fill="#E0E0E0"/>
<path d="M418.857 314.154H240.432C239.034 314.152 237.693 313.592 236.704 312.596C235.715 311.601 235.159 310.252 235.156 308.844V56.4142C235.171 55.0146 235.733 53.6773 236.72 52.692C237.708 51.7066 239.042 51.1528 240.432 51.1504H418.857C420.245 51.1552 421.575 51.7105 422.559 52.6958C423.543 53.6811 424.102 55.0171 424.114 56.4142V308.844C424.114 310.249 423.561 311.597 422.575 312.592C421.59 313.588 420.253 314.149 418.857 314.154ZM240.432 51.3364C239.095 51.3388 237.813 51.8746 236.868 52.8264C235.922 53.7781 235.39 55.0682 235.387 56.4142V308.844C235.39 310.19 235.922 311.48 236.868 312.432C237.813 313.384 239.095 313.919 240.432 313.922H418.857C420.194 313.919 421.476 313.384 422.421 312.432C423.367 311.48 423.899 310.19 423.902 308.844V56.4142C423.899 55.0682 423.367 53.7781 422.421 52.8264C421.476 51.8746 420.194 51.3388 418.857 51.3364H240.432Z" fill="#E0E0E0"/>
<path d="M70.7961 127.234C66.7675 118.473 69.9645 112.242 79.8051 112.242C85.9867 112.242 93.6651 114.697 101.057 118.687C101.907 116.409 104.273 115.051 108.089 115.051C114.806 115.051 124.074 119.264 131.337 125.216C133.576 123.713 136.213 122.922 138.904 122.946C145.372 122.677 153.115 125.104 159.888 129.047C160.286 128.668 160.755 128.373 161.267 128.178C161.78 127.983 162.325 127.893 162.873 127.913C166.569 127.764 171.586 130.21 174.081 133.372C174.238 133.576 174.367 133.762 174.506 133.958H68.8373C68.6283 132.761 68.6963 131.531 69.0361 130.365C69.3758 129.199 69.9781 128.128 70.7961 127.234Z" fill="#F5F5F5"/>
<path d="M190.638 85.5613C190.963 85.5239 191.29 85.5052 191.618 85.5055C191.313 82.0831 193.078 79.9255 196.838 79.9255C199.555 79.9255 202.881 81.0694 206.281 83.0038C205.311 76.3636 208.416 72.0391 215.466 72.0391C221.149 72.0391 228.337 74.8291 235.443 79.4791C236.062 76.8751 238.159 75.3127 241.68 75.3127C247.852 75.3127 256.639 80.1301 263.68 86.9377C265.549 85.2472 267.977 84.3188 270.49 84.3337C276.376 84.0268 283.676 86.7982 290.153 91.318C290.462 90.8991 290.867 90.5619 291.334 90.3352C291.8 90.1084 292.315 89.9989 292.833 90.016C296.048 89.8579 300.483 92.341 303.052 95.6797H185.464C182.701 90.574 184.9 86.1472 190.638 85.5613Z" fill="#F5F5F5"/>
<path d="M348.347 71.0611C345.76 65.4811 347.82 61.4355 354.131 61.4355C358.095 61.4355 363.011 63.0073 367.797 65.5741C368.333 64.114 369.858 63.2304 372.306 63.2304C376.622 63.2304 382.563 65.946 387.22 69.7404C388.659 68.7786 390.352 68.2732 392.08 68.2896C396.201 68.1129 401.2 69.666 405.543 72.2049C405.797 71.9602 406.097 71.7691 406.425 71.6429C406.754 71.5167 407.104 71.458 407.455 71.4702C408.831 71.5202 410.182 71.8577 411.421 72.4613C412.66 73.0649 413.761 73.9214 414.653 74.9764L414.931 75.3483H345.122C342.914 73.3767 345.353 71.1541 348.347 71.0611Z" fill="#F5F5F5"/>
<path d="M113.846 254.373H82.375V355.631H113.846V254.373Z" fill="#EBEBEB"/>
<path d="M103.563 355.633H155.168L155.168 219.137H103.563L103.563 355.633Z" fill="#F5F5F5"/>
<path d="M181.955 219.137H155.168V355.633H181.955V219.137Z" fill="#EBEBEB"/>
<path d="M110.502 219.137H155.168V205.568H110.502V219.137Z" fill="#F5F5F5"/>
<path d="M110.502 219.137H155.168V216.086H110.502V219.137Z" fill="#EBEBEB"/>
<path d="M175.006 205.568H155.168V219.137H175.006V205.568Z" fill="#EBEBEB"/>
<path d="M117.439 205.568H155.156V192H117.439V205.568Z" fill="#F5F5F5"/>
<path d="M117.439 205.568H155.156V202.518H117.439V205.568Z" fill="#EBEBEB"/>
<path d="M168.067 191.998H155.168V205.567H168.067V191.998Z" fill="#EBEBEB"/>
<path d="M144.004 173.045H141.5V192.008H144.004V173.045Z" fill="#EBEBEB"/>
<path d="M173.396 355.633H211.086V242.87H173.396V355.633Z" fill="#F5F5F5"/>
<path d="M230.647 242.869H211.086V355.632H230.647V242.869Z" fill="#EBEBEB"/>
<path d="M220.863 275.086L249.443 299.75V355.633H220.863V275.086Z" fill="#F5F5F5"/>
<path d="M264.283 299.74H249.453V355.624H264.283V299.74Z" fill="#EBEBEB"/>
<path d="M264.282 299.75H249.443L220.863 275.086H235.703L264.282 299.75Z" fill="#EBEBEB"/>
<path d="M398.242 355.632C398.639 353.398 399.582 351.298 400.987 349.523C402.392 347.749 404.215 346.354 406.29 345.467C404.468 348.524 403.641 352.078 403.925 355.632H398.242Z" fill="#EBEBEB"/>
<path d="M131.696 355.632C131.3 353.398 130.357 351.298 128.951 349.523C127.546 347.749 125.724 346.354 123.648 345.467C125.47 348.524 126.297 352.078 126.014 355.632H131.696Z" fill="#EBEBEB"/>
<path d="M65.7048 355.633C65.7048 355.633 65.252 343.729 60.3086 340.27C62.3322 345.133 61.9071 355.633 61.9071 355.633H65.7048Z" fill="#EBEBEB"/>
<path d="M63.8477 355.633C63.8477 355.633 64.3004 348.797 69.2438 346.816C67.2203 349.606 67.6638 355.633 67.6638 355.633H63.8477Z" fill="#EBEBEB"/>
<path d="M135.931 355.633C135.931 355.633 135.432 344.362 126.469 340.27C130.479 346.054 130.248 355.633 130.248 355.633H135.931Z" fill="#EBEBEB"/>
<path d="M356.931 340.38H334.283C334.038 340.38 333.803 340.282 333.63 340.108C333.457 339.934 333.359 339.697 333.359 339.45V316.684C333.359 316.437 333.457 316.201 333.63 316.026C333.803 315.852 334.038 315.754 334.283 315.754H356.931C357.176 315.754 357.411 315.852 357.584 316.026C357.757 316.201 357.855 316.437 357.855 316.684V339.45C357.855 339.697 357.757 339.934 357.584 340.108C357.411 340.282 357.176 340.38 356.931 340.38ZM335.207 338.52H356.007V317.614H335.207V338.52Z" fill="#E0E0E0"/>
<path d="M356.931 317.615H334.283C334.038 317.615 333.803 317.517 333.63 317.342C333.457 317.168 333.359 316.931 333.359 316.685V293.881C333.359 293.635 333.457 293.398 333.63 293.224C333.803 293.049 334.038 292.951 334.283 292.951H356.931C357.176 292.951 357.411 293.049 357.584 293.224C357.757 293.398 357.855 293.635 357.855 293.881V316.685C357.855 316.931 357.757 317.168 357.584 317.342C357.411 317.517 357.176 317.615 356.931 317.615ZM335.207 315.755H356.007V294.811H335.207V315.755Z" fill="#E0E0E0"/>
<path d="M356.93 340.38C356.687 340.377 356.454 340.277 356.284 340.101L333.627 317.307C333.453 317.132 333.355 316.894 333.355 316.647C333.355 316.399 333.453 316.161 333.627 315.986C333.801 315.811 334.037 315.713 334.283 315.713C334.529 315.713 334.765 315.811 334.939 315.986L357.587 338.827C357.759 339.001 357.855 339.237 357.855 339.483C357.855 339.729 357.759 339.964 357.587 340.138C357.408 340.302 357.172 340.389 356.93 340.38Z" fill="#E0E0E0"/>
<path d="M356.931 317.615C356.689 317.614 356.457 317.517 356.285 317.345L333.628 294.541C333.456 294.367 333.359 294.132 333.359 293.886C333.359 293.64 333.456 293.404 333.628 293.23C333.714 293.143 333.816 293.074 333.929 293.027C334.041 292.979 334.162 292.955 334.284 292.955C334.406 292.955 334.527 292.979 334.639 293.027C334.752 293.074 334.854 293.143 334.94 293.23L357.587 316.024C357.718 316.155 357.807 316.321 357.843 316.502C357.879 316.683 357.86 316.871 357.79 317.041C357.72 317.212 357.6 317.358 357.447 317.46C357.295 317.562 357.115 317.616 356.931 317.615Z" fill="#E0E0E0"/>
<path d="M356.931 294.811H334.283C334.038 294.811 333.803 294.713 333.63 294.538C333.457 294.364 333.359 294.127 333.359 293.881V271.086C333.359 270.84 333.457 270.603 333.63 270.429C333.803 270.254 334.038 270.156 334.283 270.156H356.931C357.176 270.156 357.411 270.254 357.584 270.429C357.757 270.603 357.855 270.84 357.855 271.086V293.881C357.855 294.127 357.757 294.364 357.584 294.538C357.411 294.713 357.176 294.811 356.931 294.811ZM335.207 292.951H356.007V272.016H335.207V292.951Z" fill="#E0E0E0"/>
<path d="M356.931 272.017H334.283C334.038 272.017 333.803 271.919 333.63 271.744C333.457 271.57 333.359 271.333 333.359 271.087V248.311C333.359 248.064 333.457 247.828 333.63 247.653C333.803 247.479 334.038 247.381 334.283 247.381H356.931C357.176 247.381 357.411 247.479 357.584 247.653C357.757 247.828 357.855 248.064 357.855 248.311V271.114C357.847 271.356 357.747 271.586 357.574 271.754C357.402 271.923 357.171 272.017 356.931 272.017ZM335.207 270.157H356.007V249.241H335.207V270.157Z" fill="#E0E0E0"/>
<path d="M356.931 294.81C356.689 294.809 356.457 294.712 356.285 294.54L333.628 271.737C333.456 271.563 333.359 271.327 333.359 271.081C333.359 270.835 333.456 270.6 333.628 270.425C333.714 270.338 333.816 270.269 333.929 270.222C334.041 270.175 334.162 270.15 334.284 270.15C334.406 270.15 334.527 270.175 334.639 270.222C334.752 270.269 334.854 270.338 334.94 270.425L357.587 293.229C357.759 293.403 357.856 293.639 357.856 293.885C357.856 294.13 357.759 294.366 357.587 294.54C357.501 294.627 357.399 294.695 357.286 294.741C357.174 294.787 357.053 294.811 356.931 294.81Z" fill="#E0E0E0"/>
<path d="M356.93 272.017C356.687 272.014 356.454 271.913 356.284 271.738L333.627 248.944C333.453 248.769 333.355 248.531 333.355 248.283C333.355 248.036 333.453 247.798 333.627 247.623C333.801 247.448 334.037 247.35 334.283 247.35C334.529 247.35 334.765 247.448 334.939 247.623L357.587 270.427C357.759 270.601 357.855 270.837 357.855 271.082C357.855 271.328 357.759 271.564 357.587 271.738C357.501 271.826 357.399 271.896 357.286 271.944C357.174 271.992 357.053 272.016 356.93 272.017Z" fill="#E0E0E0"/>
<path d="M356.931 249.24H334.283C334.038 249.24 333.803 249.142 333.63 248.968C333.457 248.794 333.359 248.557 333.359 248.31V225.479C333.359 225.232 333.457 224.996 333.63 224.821C333.803 224.647 334.038 224.549 334.283 224.549H356.931C357.176 224.549 357.411 224.647 357.584 224.821C357.757 224.996 357.855 225.232 357.855 225.479V248.31C357.855 248.557 357.757 248.794 357.584 248.968C357.411 249.142 357.176 249.24 356.931 249.24ZM335.207 247.38H356.007V226.409H335.207V247.38Z" fill="#E0E0E0"/>
<path d="M356.931 226.408H334.283C334.038 226.408 333.803 226.31 333.63 226.136C333.457 225.961 333.359 225.725 333.359 225.478V202.684C333.359 202.437 333.457 202.201 333.63 202.026C333.803 201.852 334.038 201.754 334.283 201.754H356.931C357.176 201.754 357.411 201.852 357.584 202.026C357.757 202.201 357.855 202.437 357.855 202.684V225.478C357.855 225.725 357.757 225.961 357.584 226.136C357.411 226.31 357.176 226.408 356.931 226.408ZM335.207 224.548H356.007V203.614H335.207V224.548Z" fill="#E0E0E0"/>
<path d="M356.931 249.24C356.689 249.239 356.457 249.142 356.285 248.97L333.628 226.166C333.456 225.992 333.359 225.757 333.359 225.511C333.359 225.265 333.456 225.029 333.628 224.855C333.714 224.768 333.816 224.699 333.929 224.652C334.041 224.604 334.162 224.58 334.284 224.58C334.406 224.58 334.527 224.604 334.639 224.652C334.752 224.699 334.854 224.768 334.94 224.855L357.587 247.622C357.718 247.752 357.807 247.918 357.843 248.099C357.879 248.28 357.86 248.468 357.79 248.639C357.72 248.809 357.6 248.955 357.447 249.057C357.295 249.159 357.115 249.213 356.931 249.212V249.24Z" fill="#E0E0E0"/>
<path d="M334.284 150.242H311.627C311.382 150.242 311.147 150.144 310.974 149.97C310.8 149.795 310.703 149.559 310.703 149.312V126.481C310.703 126.234 310.8 125.998 310.974 125.823C311.147 125.649 311.382 125.551 311.627 125.551H334.284C334.529 125.551 334.764 125.649 334.937 125.823C335.11 125.998 335.208 126.234 335.208 126.481V149.275C335.213 149.4 335.192 149.525 335.148 149.642C335.104 149.76 335.037 149.867 334.95 149.957C334.864 150.047 334.761 150.119 334.646 150.168C334.531 150.217 334.408 150.242 334.284 150.242ZM312.551 148.382H333.36V127.411H312.551V148.382Z" fill="#E0E0E0"/>
<path d="M356.931 150.243H334.283C334.038 150.243 333.803 150.145 333.63 149.97C333.457 149.796 333.359 149.559 333.359 149.313C333.359 149.066 333.457 148.829 333.63 148.655C333.803 148.48 334.038 148.383 334.283 148.383H356.007V103.743C356.007 103.496 356.104 103.259 356.277 103.085C356.451 102.91 356.686 102.812 356.931 102.812C357.176 102.812 357.411 102.91 357.584 103.085C357.757 103.259 357.855 103.496 357.855 103.743V149.313C357.855 149.559 357.757 149.796 357.584 149.97C357.411 150.145 357.176 150.243 356.931 150.243Z" fill="#E0E0E0"/>
<path d="M334.286 150.241C334.128 150.242 333.972 150.202 333.833 150.125C333.695 150.048 333.578 149.937 333.494 149.802C333.411 149.666 333.363 149.511 333.356 149.352C333.349 149.193 333.383 149.035 333.454 148.893L356.111 103.323C356.222 103.104 356.414 102.938 356.646 102.861C356.878 102.784 357.131 102.803 357.349 102.913C357.568 103.023 357.735 103.216 357.813 103.45C357.891 103.684 357.874 103.939 357.765 104.16L335.108 149.73C335.032 149.883 334.914 150.012 334.769 150.102C334.624 150.192 334.457 150.241 334.286 150.241Z" fill="#E0E0E0"/>
<path d="M311.63 150.242H288.983C288.738 150.242 288.503 150.144 288.329 149.97C288.156 149.795 288.059 149.559 288.059 149.312V126.481C288.059 126.234 288.156 125.998 288.329 125.823C288.503 125.649 288.738 125.551 288.983 125.551H311.63C311.875 125.551 312.11 125.649 312.283 125.823C312.456 125.998 312.554 126.234 312.554 126.481V149.275C312.559 149.4 312.539 149.525 312.494 149.642C312.45 149.76 312.383 149.867 312.297 149.957C312.21 150.047 312.107 150.119 311.992 150.168C311.878 150.217 311.754 150.242 311.63 150.242ZM289.907 148.382H310.706V127.411H289.907V148.382Z" fill="#E0E0E0"/>
<path d="M311.63 150.242C311.449 150.239 311.273 150.183 311.123 150.081C310.974 149.979 310.857 149.834 310.788 149.666C310.719 149.498 310.701 149.313 310.736 149.134C310.77 148.955 310.856 148.791 310.983 148.661L333.63 125.857C333.716 125.77 333.818 125.701 333.931 125.654C334.043 125.606 334.164 125.582 334.286 125.582C334.408 125.582 334.529 125.606 334.642 125.654C334.754 125.701 334.856 125.77 334.942 125.857C335.114 126.031 335.211 126.267 335.211 126.513C335.211 126.758 335.114 126.994 334.942 127.168L312.314 149.972C312.224 150.062 312.117 150.132 311.999 150.178C311.882 150.225 311.756 150.246 311.63 150.242Z" fill="#E0E0E0"/>
<path d="M379.588 150.242H356.932C356.687 150.242 356.452 150.144 356.278 149.97C356.105 149.795 356.008 149.559 356.008 149.312V126.481C356.008 126.234 356.105 125.998 356.278 125.823C356.452 125.649 356.687 125.551 356.932 125.551H379.588C379.833 125.551 380.068 125.649 380.242 125.823C380.415 125.998 380.512 126.234 380.512 126.481V149.275C380.517 149.4 380.497 149.525 380.453 149.642C380.409 149.76 380.341 149.867 380.255 149.957C380.169 150.047 380.065 150.119 379.951 150.168C379.836 150.217 379.713 150.242 379.588 150.242ZM357.856 148.382H378.664V127.411H357.856V148.382Z" fill="#E0E0E0"/>
<path d="M356.931 150.242C356.75 150.239 356.574 150.183 356.424 150.081C356.274 149.979 356.158 149.834 356.089 149.666C356.02 149.498 356.002 149.313 356.037 149.134C356.071 148.955 356.157 148.791 356.284 148.661L378.931 125.857C379.017 125.77 379.119 125.701 379.232 125.654C379.344 125.606 379.465 125.582 379.587 125.582C379.709 125.582 379.83 125.606 379.942 125.654C380.055 125.701 380.157 125.77 380.243 125.857C380.415 126.031 380.512 126.267 380.512 126.513C380.512 126.758 380.415 126.994 380.243 127.168L357.587 149.972C357.5 150.058 357.398 150.126 357.285 150.173C357.173 150.219 357.052 150.242 356.931 150.242Z" fill="#E0E0E0"/>
<path d="M221.022 150.243C220.901 150.243 220.78 150.22 220.668 150.174C220.555 150.127 220.453 150.059 220.366 149.973C220.194 149.799 220.098 149.563 220.098 149.317C220.098 149.072 220.194 148.836 220.366 148.662L243.014 125.858C243.139 125.725 243.305 125.637 243.485 125.607L356.758 102.803C356.906 102.773 357.06 102.781 357.205 102.824C357.35 102.868 357.482 102.947 357.59 103.054L402.866 148.624C402.962 148.708 403.041 148.81 403.096 148.926C403.152 149.041 403.183 149.167 403.188 149.295C403.193 149.423 403.171 149.551 403.125 149.67C403.078 149.789 403.008 149.898 402.918 149.988C402.828 150.079 402.72 150.15 402.602 150.197C402.483 150.243 402.356 150.265 402.229 150.26C402.102 150.255 401.977 150.224 401.862 150.168C401.748 150.112 401.646 150.033 401.563 149.936L356.666 104.728L244.132 127.411L221.669 150.01C221.491 150.168 221.26 150.252 221.022 150.243Z" fill="#E0E0E0"/>
<path d="M288.979 150.241C288.858 150.242 288.737 150.218 288.625 150.172C288.512 150.126 288.41 150.058 288.323 149.971C288.151 149.797 288.055 149.561 288.055 149.316C288.055 149.07 288.151 148.834 288.323 148.66L310.98 125.856C311.157 125.704 311.384 125.624 311.617 125.634C311.849 125.643 312.07 125.74 312.234 125.905C312.399 126.071 312.495 126.293 312.504 126.527C312.513 126.761 312.434 126.99 312.283 127.168L289.626 149.971C289.454 150.143 289.222 150.24 288.979 150.241Z" fill="#E0E0E0"/>
<path d="M288.983 150.242H266.326C266.081 150.242 265.846 150.144 265.673 149.97C265.5 149.795 265.402 149.559 265.402 149.312V126.481C265.402 126.234 265.5 125.998 265.673 125.823C265.846 125.649 266.081 125.551 266.326 125.551H288.983C289.228 125.551 289.463 125.649 289.636 125.823C289.809 125.998 289.907 126.234 289.907 126.481V149.275C289.912 149.4 289.892 149.525 289.847 149.642C289.803 149.76 289.736 149.867 289.65 149.957C289.563 150.047 289.46 150.119 289.345 150.168C289.231 150.217 289.107 150.242 288.983 150.242ZM267.25 148.382H288.059V127.411H267.25V148.382Z" fill="#E0E0E0"/>
<path d="M266.323 150.242H243.666C243.421 150.242 243.186 150.144 243.013 149.97C242.84 149.795 242.742 149.559 242.742 149.312V126.481C242.742 126.234 242.84 125.998 243.013 125.823C243.186 125.649 243.421 125.551 243.666 125.551H266.323C266.568 125.551 266.803 125.649 266.976 125.823C267.149 125.998 267.247 126.234 267.247 126.481V149.275C267.252 149.4 267.231 149.525 267.187 149.642C267.143 149.76 267.076 149.867 266.989 149.957C266.903 150.047 266.8 150.119 266.685 150.168C266.57 150.217 266.447 150.242 266.323 150.242ZM244.59 148.382H265.399V127.411H244.59V148.382Z" fill="#E0E0E0"/>
<path d="M266.323 150.241C266.202 150.242 266.081 150.218 265.968 150.172C265.856 150.126 265.753 150.058 265.667 149.971C265.495 149.797 265.398 149.561 265.398 149.316C265.398 149.07 265.495 148.834 265.667 148.66L288.287 125.856C288.463 125.704 288.691 125.624 288.923 125.634C289.156 125.643 289.376 125.74 289.541 125.905C289.706 126.071 289.802 126.293 289.811 126.527C289.82 126.761 289.741 126.99 289.589 127.168L266.942 149.971C266.777 150.137 266.556 150.233 266.323 150.241Z" fill="#E0E0E0"/>
<path d="M243.669 150.242C243.488 150.239 243.312 150.183 243.162 150.081C243.013 149.979 242.896 149.834 242.827 149.666C242.759 149.498 242.74 149.313 242.775 149.134C242.809 148.955 242.895 148.791 243.022 148.661L265.669 125.857C265.755 125.77 265.857 125.701 265.97 125.654C266.083 125.606 266.203 125.582 266.325 125.582C266.447 125.582 266.568 125.606 266.681 125.654C266.793 125.701 266.895 125.77 266.981 125.857C267.153 126.031 267.25 126.267 267.25 126.513C267.25 126.758 267.153 126.994 266.981 127.168L244.325 149.972C244.239 150.058 244.136 150.126 244.024 150.173C243.911 150.219 243.79 150.242 243.669 150.242Z" fill="#E0E0E0"/>
<path d="M243.669 150.242H221.022C220.777 150.242 220.542 150.144 220.368 149.97C220.195 149.795 220.098 149.559 220.098 149.312C220.098 149.066 220.195 148.829 220.368 148.655C220.542 148.48 220.777 148.382 221.022 148.382H242.745V126.481C242.745 126.234 242.842 125.998 243.016 125.823C243.189 125.649 243.424 125.551 243.669 125.551C243.914 125.551 244.149 125.649 244.322 125.823C244.496 125.998 244.593 126.234 244.593 126.481V149.275C244.598 149.4 244.578 149.525 244.533 149.642C244.489 149.76 244.422 149.867 244.336 149.957C244.249 150.047 244.146 150.119 244.031 150.168C243.917 150.217 243.793 150.242 243.669 150.242Z" fill="#E0E0E0"/>
<path d="M356.93 226.408C356.688 226.407 356.456 226.31 356.284 226.138L333.627 203.344C333.541 203.257 333.473 203.154 333.426 203.041C333.379 202.928 333.355 202.806 333.355 202.684C333.355 202.561 333.379 202.44 333.426 202.326C333.473 202.213 333.541 202.11 333.627 202.023C333.713 201.937 333.816 201.868 333.928 201.821C334.041 201.774 334.161 201.75 334.283 201.75C334.405 201.75 334.526 201.774 334.638 201.821C334.751 201.868 334.853 201.937 334.939 202.023L357.587 224.827C357.759 225.001 357.855 225.237 357.855 225.483C357.855 225.728 357.759 225.964 357.587 226.138C357.5 226.225 357.398 226.293 357.285 226.339C357.173 226.385 357.052 226.409 356.93 226.408Z" fill="#E0E0E0"/>
<path d="M356.931 203.615H334.283C334.038 203.615 333.803 203.517 333.63 203.342C333.457 203.168 333.359 202.931 333.359 202.685V179.881C333.359 179.635 333.457 179.398 333.63 179.224C333.803 179.049 334.038 178.951 334.283 178.951H356.931C357.176 178.951 357.411 179.049 357.584 179.224C357.757 179.398 357.855 179.635 357.855 179.881V202.685C357.855 202.931 357.757 203.168 357.584 203.342C357.411 203.517 357.176 203.615 356.931 203.615ZM335.207 201.755H356.007V180.811H335.207V201.755Z" fill="#E0E0E0"/>
<path d="M356.931 180.811H334.283C334.038 180.811 333.803 180.713 333.63 180.538C333.457 180.364 333.359 180.127 333.359 179.881V157.086C333.359 156.84 333.457 156.603 333.63 156.429C333.803 156.254 334.038 156.156 334.283 156.156H356.931C357.176 156.156 357.411 156.254 357.584 156.429C357.757 156.603 357.855 156.84 357.855 157.086V179.881C357.855 180.127 357.757 180.364 357.584 180.538C357.411 180.713 357.176 180.811 356.931 180.811ZM335.207 178.951H356.007V158.016H335.207V178.951Z" fill="#E0E0E0"/>
<path d="M356.93 203.615C356.688 203.614 356.456 203.517 356.284 203.345L333.627 180.541C333.541 180.455 333.473 180.352 333.426 180.238C333.379 180.125 333.355 180.004 333.355 179.881C333.355 179.758 333.379 179.637 333.426 179.524C333.473 179.41 333.541 179.307 333.627 179.221C333.713 179.134 333.816 179.065 333.928 179.018C334.041 178.971 334.161 178.947 334.283 178.947C334.405 178.947 334.526 178.971 334.638 179.018C334.751 179.065 334.853 179.134 334.939 179.221L357.587 202.024C357.717 202.154 357.806 202.321 357.842 202.502C357.878 202.683 357.86 202.871 357.789 203.041C357.719 203.212 357.6 203.358 357.447 203.46C357.294 203.562 357.114 203.616 356.93 203.615Z" fill="#E0E0E0"/>
<path d="M356.931 180.81C356.689 180.809 356.457 180.712 356.285 180.54L333.628 157.737C333.456 157.563 333.359 157.327 333.359 157.081C333.359 156.835 333.456 156.6 333.628 156.425C333.714 156.338 333.816 156.269 333.929 156.222C334.041 156.175 334.162 156.15 334.284 156.15C334.406 156.15 334.527 156.175 334.639 156.222C334.752 156.269 334.854 156.338 334.94 156.425L357.587 179.22C357.718 179.35 357.807 179.516 357.843 179.697C357.879 179.878 357.86 180.066 357.79 180.237C357.72 180.407 357.6 180.553 357.447 180.655C357.295 180.757 357.115 180.811 356.931 180.81Z" fill="#E0E0E0"/>
<path d="M402.244 149.312H221.02L243.667 157.087H402.244V149.312Z" fill="#E0E0E0"/>
<path d="M402.243 158.016H243.666C243.565 158.015 243.465 157.996 243.371 157.96L220.714 150.195C220.504 150.125 220.325 149.982 220.211 149.791C220.097 149.601 220.054 149.375 220.091 149.156C220.128 148.936 220.242 148.737 220.412 148.595C220.583 148.453 220.798 148.377 221.019 148.381H402.243C402.488 148.381 402.723 148.479 402.897 148.653C403.07 148.828 403.167 149.064 403.167 149.311V157.086C403.167 157.332 403.07 157.569 402.897 157.743C402.723 157.918 402.488 158.016 402.243 158.016ZM243.823 156.156H401.319V150.241H226.591L243.823 156.156Z" fill="#E0E0E0"/>
<path d="M317.515 189.07H334.285V153.2H317.515V189.07Z" fill="#E0E0E0"/>
<path d="M317.506 153.199H309.707V189.069H317.506V153.199Z" fill="#F5F5F5"/>
<path d="M336.781 355.623H369.805V339.478H336.781V355.623Z" fill="#E0E0E0"/>
<path d="M336.78 339.488H321.414V355.633H336.78V339.488Z" fill="#F5F5F5"/>
<path d="M379.588 189.386C379.343 189.386 379.108 189.288 378.935 189.113C378.761 188.939 378.664 188.702 378.664 188.456V153.2C378.664 152.953 378.761 152.716 378.935 152.542C379.108 152.368 379.343 152.27 379.588 152.27C379.833 152.27 380.068 152.368 380.241 152.542C380.415 152.716 380.512 152.953 380.512 153.2V188.456C380.512 188.702 380.415 188.939 380.241 189.113C380.068 189.288 379.833 189.386 379.588 189.386Z" fill="#E0E0E0"/>
<path d="M379.588 193.663C378.985 193.663 378.396 193.483 377.894 193.146C377.393 192.809 377.002 192.33 376.771 191.769C376.54 191.208 376.48 190.591 376.598 189.996C376.715 189.4 377.006 188.853 377.432 188.424C377.859 187.995 378.402 187.703 378.993 187.584C379.585 187.466 380.198 187.527 380.755 187.759C381.312 187.991 381.789 188.385 382.124 188.889C382.459 189.394 382.637 189.987 382.637 190.594C382.637 190.997 382.559 191.396 382.405 191.769C382.252 192.141 382.028 192.48 381.744 192.764C381.461 193.049 381.125 193.276 380.755 193.43C380.385 193.584 379.989 193.663 379.588 193.663ZM379.588 189.385C379.351 189.385 379.118 189.456 378.921 189.589C378.723 189.722 378.569 189.911 378.479 190.132C378.388 190.353 378.364 190.596 378.41 190.83C378.456 191.065 378.571 191.28 378.739 191.449C378.907 191.618 379.121 191.734 379.354 191.78C379.587 191.827 379.828 191.803 380.048 191.711C380.267 191.62 380.455 191.465 380.587 191.266C380.719 191.067 380.789 190.834 380.789 190.594C380.789 190.436 380.758 190.278 380.698 190.132C380.638 189.985 380.549 189.852 380.438 189.739C380.326 189.627 380.194 189.538 380.048 189.477C379.902 189.417 379.746 189.385 379.588 189.385Z" fill="#E0E0E0"/>
<path d="M246.514 207.893C246.269 207.893 246.034 207.795 245.86 207.62C245.687 207.446 245.59 207.209 245.59 206.963V153.2C245.59 152.953 245.687 152.716 245.86 152.542C246.034 152.368 246.269 152.27 246.514 152.27C246.759 152.27 246.994 152.368 247.167 152.542C247.34 152.716 247.438 152.953 247.438 153.2V206.963C247.438 207.209 247.34 207.446 247.167 207.62C246.994 207.795 246.759 207.893 246.514 207.893Z" fill="#E0E0E0"/>
<path d="M255.191 213.463C254.97 213.467 254.756 213.391 254.587 213.249C254.418 213.108 254.304 212.91 254.267 212.692C253.583 211.613 247.568 208.042 246.468 207.893C245.433 208.032 239.418 211.613 238.734 212.692C238.713 212.938 238.596 213.166 238.408 213.326C238.22 213.486 237.977 213.563 237.732 213.542C237.487 213.522 237.26 213.403 237.101 213.214C236.943 213.025 236.865 212.78 236.886 212.533C236.886 210.441 245.267 206.023 246.477 206.023C247.688 206.023 256.078 210.432 256.078 212.533C256.078 212.774 255.986 213.005 255.82 213.178C255.655 213.352 255.429 213.454 255.191 213.463Z" fill="#E0E0E0"/>
<path d="M265.189 280.684L278.744 267.041L275.852 261.461C276.101 260.903 276.332 260.345 276.545 259.768L282.486 257.908V238.639L276.545 236.779C276.323 236.212 276.101 235.644 275.852 235.086L278.734 229.506L265.189 215.891L259.645 218.793C259.09 218.542 258.536 218.309 257.972 218.095L256.124 212.115H236.933L235.085 218.095C234.521 218.309 233.967 218.542 233.412 218.793L227.868 215.891L214.369 229.525L217.261 235.105C217.002 235.663 216.78 236.23 216.559 236.797L210.617 238.657V257.946L216.559 259.806C216.78 260.382 217.002 260.94 217.252 261.498L214.369 267.078L227.924 280.721L233.468 277.81C234.022 278.062 234.586 278.294 235.149 278.508L236.997 284.488H256.17L258.018 278.508C258.582 278.294 259.136 278.062 259.691 277.81L265.189 280.684ZM256.642 258.429C254.647 260.438 252.105 261.806 249.337 262.361C246.569 262.916 243.7 262.632 241.093 261.545C238.486 260.459 236.257 258.618 234.689 256.257C233.121 253.895 232.285 251.119 232.285 248.278C232.285 245.438 233.121 242.662 234.689 240.3C236.257 237.938 238.486 236.098 241.093 235.011C243.7 233.925 246.569 233.641 249.337 234.196C252.105 234.75 254.647 236.118 256.642 238.127C257.965 239.462 259.015 241.046 259.729 242.789C260.444 244.532 260.81 246.4 260.807 248.286C260.803 250.172 260.431 252.038 259.709 253.779C258.988 255.519 257.933 257.1 256.605 258.429H256.642Z" fill="#E0E0E0"/>
<path d="M230.998 397.631C329.942 397.631 410.152 392.918 410.152 387.104C410.152 381.29 329.942 376.576 230.998 376.576C132.054 376.576 51.8438 381.29 51.8438 387.104C51.8438 392.918 132.054 397.631 230.998 397.631Z" fill="#F5F5F5"/>
<path d="M162.524 151.729H150.992C150.465 151.729 149.947 151.868 149.49 152.133C149.033 152.397 148.653 152.777 148.387 153.235L142.621 163.288C142.357 163.75 142.219 164.272 142.219 164.804C142.219 165.336 142.357 165.859 142.621 166.32L148.387 176.364C148.65 176.825 149.03 177.208 149.487 177.474C149.945 177.741 150.464 177.881 150.992 177.88H162.524C163.052 177.881 163.571 177.741 164.029 177.474C164.487 177.208 164.866 176.825 165.13 176.364L170.895 166.32C171.159 165.859 171.297 165.336 171.297 164.804C171.297 164.272 171.159 163.75 170.895 163.288L165.13 153.235C164.864 152.777 164.483 152.397 164.026 152.133C163.569 151.868 163.051 151.729 162.524 151.729Z" fill="#F39783"/>
<path opacity="0.5" d="M162.524 151.729H150.992C150.465 151.729 149.947 151.868 149.49 152.133C149.033 152.397 148.653 152.777 148.387 153.235L142.621 163.288C142.357 163.75 142.219 164.272 142.219 164.804C142.219 165.336 142.357 165.859 142.621 166.32L148.387 176.364C148.65 176.825 149.03 177.208 149.487 177.474C149.945 177.741 150.464 177.881 150.992 177.88H162.524C163.052 177.881 163.571 177.741 164.029 177.474C164.487 177.208 164.866 176.825 165.13 176.364L170.895 166.32C171.159 165.859 171.297 165.336 171.297 164.804C171.297 164.272 171.159 163.75 170.895 163.288L165.13 153.235C164.864 152.777 164.483 152.397 164.026 152.133C163.569 151.868 163.051 151.729 162.524 151.729Z" fill="white"/>
<path d="M88.7029 118.416L88.0469 117.755L93.5909 112.175L94.2469 112.836L88.7029 118.416ZM98.2478 108.809L97.5918 108.149L109.179 96.4863L109.835 97.1373L98.2478 108.809Z" fill="#F39783"/>
<path opacity="0.5" d="M88.7029 118.416L88.0469 117.755L93.5909 112.175L94.2469 112.836L88.7029 118.416ZM98.2478 108.809L97.5918 108.149L109.179 96.4863L109.835 97.1373L98.2478 108.809Z" fill="white"/>
<path d="M235.158 185.851V143.759L222.222 139.676C221.76 138.43 221.252 137.203 220.716 135.956L227.009 123.866L197.441 94.1064L185.429 100.449C184.218 99.9003 183.008 99.3888 181.733 98.9145L177.676 85.8945H135.828L131.781 98.9145C130.534 99.3888 129.323 99.9003 128.085 100.449L116.073 94.1064L86.5051 123.866L92.8068 135.956C92.2617 137.175 91.7535 138.393 91.2915 139.676L78.3555 143.759V185.851L91.2915 189.924C91.7627 191.171 92.2709 192.398 92.8068 193.644L86.5051 205.734L116.073 235.494L128.085 229.152C129.286 229.7 130.497 230.212 131.781 230.686L135.828 243.706H177.649L181.705 230.686C182.943 230.212 184.153 229.7 185.401 229.152L197.413 235.494L226.981 205.734L220.679 193.644C221.215 192.435 221.733 191.208 222.195 189.924L235.158 185.851ZM187.877 164.796C187.877 170.991 186.052 177.047 182.632 182.198C179.213 187.348 174.353 191.363 168.666 193.734C162.98 196.105 156.722 196.725 150.686 195.516C144.649 194.308 139.104 191.325 134.751 186.944C130.399 182.563 127.435 176.982 126.235 170.906C125.034 164.83 125.65 158.533 128.005 152.809C130.361 147.086 134.35 142.194 139.467 138.752C144.585 135.31 150.602 133.473 156.757 133.473C165.01 133.476 172.924 136.777 178.76 142.65C184.595 148.524 187.875 156.489 187.877 164.796Z" fill="#F39783"/>
<path opacity="0.5" d="M235.158 185.851V143.759L222.222 139.676C221.76 138.43 221.252 137.203 220.716 135.956L227.009 123.866L197.441 94.1064L185.429 100.449C184.218 99.9003 183.008 99.3888 181.733 98.9145L177.676 85.8945H135.828L131.781 98.9145C130.534 99.3888 129.323 99.9003 128.085 100.449L116.073 94.1064L86.5051 123.866L92.8068 135.956C92.2617 137.175 91.7535 138.393 91.2915 139.676L78.3555 143.759V185.851L91.2915 189.924C91.7627 191.171 92.2709 192.398 92.8068 193.644L86.5051 205.734L116.073 235.494L128.085 229.152C129.286 229.7 130.497 230.212 131.781 230.686L135.828 243.706H177.649L181.705 230.686C182.943 230.212 184.153 229.7 185.401 229.152L197.413 235.494L226.981 205.734L220.679 193.644C221.215 192.435 221.733 191.208 222.195 189.924L235.158 185.851ZM187.877 164.796C187.877 170.991 186.052 177.047 182.632 182.198C179.213 187.348 174.353 191.363 168.666 193.734C162.98 196.105 156.722 196.725 150.686 195.516C144.649 194.308 139.104 191.325 134.751 186.944C130.399 182.563 127.435 176.982 126.235 170.906C125.034 164.83 125.65 158.533 128.005 152.809C130.361 147.086 134.35 142.194 139.467 138.752C144.585 135.31 150.602 133.473 156.757 133.473C165.01 133.476 172.924 136.777 178.76 142.65C184.595 148.524 187.875 156.489 187.877 164.796Z" fill="white"/>
<path d="M175.636 241.157H137.89C137.84 241.157 137.792 241.141 137.752 241.111C137.712 241.08 137.683 241.038 137.669 240.99L133.973 229.253C133.954 229.194 133.96 229.13 133.989 229.075C134.017 229.02 134.066 228.979 134.125 228.96C134.184 228.942 134.248 228.947 134.302 228.976C134.357 229.005 134.398 229.054 134.416 229.114L138.011 240.692H175.414L179.258 228.472C179.269 228.438 179.287 228.408 179.311 228.382C179.335 228.356 179.364 228.336 179.396 228.323L180.662 227.849C181.734 227.44 182.871 226.965 184.155 226.389L185.384 225.831C185.44 225.806 185.504 225.805 185.561 225.828C185.619 225.85 185.664 225.895 185.689 225.952C185.713 226.008 185.715 226.073 185.692 226.13C185.669 226.188 185.625 226.234 185.569 226.259L184.34 226.807C183.056 227.393 181.901 227.867 180.829 228.277L179.664 228.723L175.858 240.99C175.842 241.037 175.813 241.079 175.773 241.109C175.733 241.139 175.685 241.156 175.636 241.157ZM196.888 232.294C196.827 232.292 196.768 232.269 196.721 232.229C196.699 232.207 196.681 232.181 196.669 232.153C196.657 232.124 196.651 232.093 196.651 232.062C196.651 232.031 196.657 232 196.669 231.971C196.681 231.942 196.699 231.916 196.721 231.894L223.296 205.157L217.391 193.811C217.375 193.779 217.367 193.744 217.367 193.709C217.367 193.673 217.375 193.638 217.391 193.606L217.946 192.369C218.5 191.114 218.971 189.961 219.387 188.863L219.858 187.589C219.871 187.556 219.891 187.527 219.917 187.503C219.943 187.479 219.973 187.461 220.006 187.45L232.157 183.627V146.009L220.145 142.233C220.112 142.228 220.08 142.216 220.052 142.198C220.024 142.179 220 142.155 219.982 142.126C219.965 142.098 219.953 142.065 219.949 142.032C219.945 141.998 219.948 141.964 219.958 141.932C219.969 141.9 219.986 141.871 220.008 141.846C220.031 141.821 220.059 141.801 220.09 141.788C220.12 141.775 220.154 141.769 220.187 141.771C220.221 141.772 220.254 141.781 220.283 141.796L232.425 145.609C232.47 145.626 232.51 145.656 232.538 145.696C232.566 145.736 232.581 145.783 232.582 145.832V183.823C232.583 183.872 232.568 183.92 232.539 183.96C232.511 184 232.471 184.03 232.425 184.046L220.256 187.859L219.821 189.031C219.406 190.137 218.897 191.291 218.362 192.565L217.863 193.699L223.785 205.092C223.815 205.131 223.83 205.178 223.83 205.227C223.83 205.275 223.815 205.323 223.785 205.361L197.1 232.229C197.043 232.276 196.971 232.3 196.897 232.294H196.888ZM116.62 232.294C116.559 232.292 116.5 232.269 116.454 232.229L89.7685 205.361C89.7419 205.322 89.7276 205.275 89.7276 205.227C89.7276 205.179 89.7419 205.132 89.7685 205.092L95.7468 193.597C95.7762 193.543 95.8252 193.502 95.8836 193.483C95.942 193.464 96.0055 193.468 96.0609 193.495C96.0877 193.509 96.1113 193.529 96.1304 193.553C96.1495 193.577 96.1638 193.604 96.1724 193.633C96.181 193.663 96.1837 193.694 96.1804 193.724C96.1772 193.755 96.1679 193.784 96.1533 193.811L90.2582 205.157L116.823 231.894C116.846 231.916 116.863 231.942 116.875 231.971C116.888 232 116.894 232.031 116.894 232.062C116.894 232.093 116.888 232.124 116.875 232.153C116.863 232.181 116.846 232.207 116.823 232.229C116.797 232.253 116.766 232.271 116.733 232.282C116.699 232.293 116.664 232.297 116.629 232.294H116.62ZM132.328 228.119H132.245C131.321 227.756 130.314 227.328 129.196 226.826C129.163 226.818 129.132 226.802 129.106 226.781C129.08 226.76 129.059 226.733 129.044 226.702C129.029 226.672 129.021 226.638 129.02 226.604C129.02 226.571 129.027 226.537 129.04 226.506C129.054 226.475 129.074 226.447 129.1 226.425C129.125 226.403 129.155 226.386 129.188 226.377C129.22 226.367 129.254 226.365 129.287 226.371C129.321 226.376 129.352 226.388 129.38 226.407C130.489 226.9 131.478 227.337 132.411 227.681C132.44 227.693 132.466 227.71 132.488 227.731C132.51 227.753 132.528 227.779 132.54 227.807C132.552 227.836 132.558 227.867 132.559 227.898C132.559 227.929 132.552 227.96 132.54 227.988C132.521 228.032 132.488 228.069 132.446 228.092C132.405 228.115 132.357 228.125 132.309 228.119H132.328ZM156.777 199.158C147.721 199.141 139.042 195.508 132.644 189.057C126.247 182.606 122.654 173.863 122.654 164.748C122.654 164.687 122.678 164.628 122.721 164.584C122.765 164.54 122.823 164.516 122.885 164.516C122.946 164.516 123.005 164.54 123.048 164.584C123.091 164.628 123.116 164.687 123.116 164.748C123.116 171.449 125.09 178 128.789 183.571C132.487 189.143 137.745 193.485 143.895 196.049C150.046 198.614 156.814 199.285 163.344 197.977C169.874 196.67 175.871 193.443 180.579 188.705C185.287 183.967 188.493 177.93 189.791 171.358C191.09 164.786 190.424 157.974 187.876 151.783C185.328 145.592 181.014 140.301 175.478 136.578C169.943 132.856 163.435 130.868 156.777 130.868C156.716 130.868 156.657 130.844 156.614 130.8C156.57 130.757 156.546 130.698 156.546 130.636C156.546 130.574 156.57 130.515 156.614 130.472C156.657 130.428 156.716 130.403 156.777 130.403C165.829 130.403 174.511 134.023 180.912 140.466C187.313 146.908 190.91 155.646 190.91 164.758C190.91 173.869 187.313 182.607 180.912 189.05C174.511 195.492 165.829 199.112 156.777 199.112V199.158ZM93.945 189.179C93.8968 189.178 93.8502 189.162 93.8108 189.133C93.7715 189.105 93.741 189.066 93.7232 189.021L93.2889 187.859L81.0829 184.018C81.0366 184.002 80.9965 183.972 80.9683 183.932C80.9401 183.892 80.9252 183.844 80.9258 183.795V145.804C80.9265 145.755 80.9419 145.708 80.97 145.668C80.998 145.628 81.0374 145.598 81.0829 145.581L92.753 141.917C92.8118 141.899 92.8753 141.904 92.9303 141.932C92.9853 141.96 93.0277 142.007 93.0487 142.066C93.0638 142.126 93.0561 142.19 93.0271 142.245C92.9981 142.3 92.9498 142.342 92.8916 142.363L81.3601 146.009V183.655L93.5107 187.478C93.5432 187.488 93.5728 187.506 93.5969 187.53C93.621 187.555 93.639 187.584 93.6493 187.617L94.1298 188.891C94.1511 188.948 94.1494 189.011 94.1253 189.066C94.1011 189.122 94.0563 189.166 94.0004 189.189L93.945 189.179ZM93.945 140.819H93.8618C93.8052 140.795 93.7602 140.749 93.7362 140.692C93.7121 140.635 93.7108 140.571 93.7324 140.513C94.176 139.322 94.6564 138.188 95.1646 137.034C95.1907 136.979 95.2373 136.937 95.2944 136.916C95.3514 136.895 95.4144 136.897 95.4696 136.923C95.4975 136.935 95.5228 136.952 95.544 136.975C95.5652 136.997 95.5819 137.023 95.5931 137.051C95.6042 137.08 95.6097 137.11 95.6091 137.141C95.6085 137.171 95.6019 137.202 95.5897 137.23C95.0722 138.364 94.6102 139.499 94.1667 140.68C94.1505 140.731 94.1182 140.774 94.0748 140.805C94.0314 140.835 93.9792 140.85 93.9265 140.847L93.945 140.819ZM217.937 135.509H217.826C217.799 135.495 217.775 135.475 217.756 135.451C217.737 135.427 217.723 135.4 217.714 135.37C217.706 135.341 217.703 135.31 217.706 135.28C217.709 135.249 217.719 135.22 217.733 135.193L223.277 124.451L218.842 119.969C218.816 119.949 218.794 119.923 218.778 119.894C218.762 119.865 218.753 119.833 218.75 119.799C218.748 119.766 218.753 119.733 218.764 119.702C218.776 119.67 218.794 119.642 218.817 119.618C218.841 119.595 218.869 119.577 218.9 119.565C218.931 119.553 218.964 119.549 218.997 119.551C219.03 119.553 219.062 119.563 219.091 119.579C219.12 119.595 219.146 119.617 219.165 119.643L223.785 124.293C223.815 124.332 223.83 124.38 223.83 124.428C223.83 124.477 223.815 124.524 223.785 124.563L218.121 135.453C218.097 135.483 218.066 135.506 218.03 135.521C217.995 135.536 217.956 135.541 217.918 135.537L217.937 135.509ZM89.9348 124.619C89.8731 124.619 89.8136 124.596 89.7685 124.554C89.7282 124.509 89.7059 124.451 89.7059 124.391C89.7059 124.331 89.7282 124.273 89.7685 124.228L116.426 97.3792C116.464 97.3482 116.511 97.3313 116.56 97.3313C116.609 97.3313 116.656 97.3482 116.694 97.3792L128.013 103.34L129.14 102.838C130.23 102.345 131.228 101.908 132.189 101.546C132.218 101.534 132.248 101.527 132.279 101.527C132.31 101.527 132.341 101.534 132.369 101.546C132.398 101.558 132.423 101.576 132.445 101.598C132.466 101.62 132.483 101.647 132.494 101.676C132.515 101.734 132.512 101.798 132.486 101.853C132.46 101.909 132.413 101.952 132.356 101.973C131.432 102.355 130.415 102.773 129.334 103.257L128.105 103.815C128.073 103.829 128.039 103.836 128.004 103.836C127.969 103.836 127.934 103.829 127.902 103.815L116.629 97.8721L90.1011 124.619C90.0478 124.641 89.9881 124.641 89.9348 124.619ZM215.155 116.137C215.094 116.138 215.034 116.115 214.989 116.072L196.814 97.8256L185.541 103.768C185.511 103.785 185.478 103.793 185.444 103.793C185.41 103.793 185.377 103.785 185.347 103.768L184.118 103.21C182.852 102.643 181.706 102.169 180.625 101.75L179.36 101.276C179.327 101.263 179.298 101.243 179.274 101.217C179.25 101.191 179.232 101.161 179.221 101.127L175.423 88.9069H138.057L134.786 99.4252C134.777 99.4544 134.763 99.4815 134.744 99.505C134.725 99.5285 134.701 99.5478 134.674 99.5617C134.648 99.5756 134.618 99.5839 134.588 99.586C134.558 99.5881 134.528 99.584 134.499 99.574C134.442 99.5548 134.395 99.5139 134.367 99.4601C134.34 99.4062 134.334 99.3437 134.351 99.2857L137.678 88.6093C137.693 88.5627 137.723 88.5224 137.763 88.4939C137.803 88.4655 137.851 88.4506 137.9 88.4512H175.645C175.694 88.4519 175.741 88.4674 175.78 88.4956C175.82 88.5239 175.85 88.5635 175.867 88.6093L179.674 100.885L180.838 101.332C181.928 101.741 183.074 102.262 184.349 102.801L185.476 103.303L196.814 97.342C196.852 97.3126 196.899 97.2966 196.948 97.2966C196.996 97.2966 197.043 97.3126 197.082 97.342L215.294 115.756C215.316 115.778 215.334 115.804 215.346 115.832C215.358 115.861 215.365 115.892 215.365 115.923C215.365 115.955 215.358 115.986 215.346 116.014C215.334 116.043 215.316 116.069 215.294 116.091C215.256 116.127 215.207 116.15 215.155 116.156V116.137Z" fill="#FAFAFA"/>
<path d="M289.526 172.412C292.418 176.132 295.126 179.852 297.768 183.693C300.411 187.534 302.924 191.459 305.299 195.551C305.899 196.564 306.472 197.624 307.054 198.666C307.894 200.244 308.389 201.985 308.505 203.772C308.656 206.484 308.394 209.203 307.729 211.835C306.579 216.568 304.834 221.134 302.536 225.422L297.777 223.562C298.722 219.268 299.404 214.92 299.819 210.542C300.003 208.651 299.941 206.744 299.635 204.869C299.559 204.349 299.366 203.852 299.071 203.418C298.461 202.488 297.87 201.558 297.223 200.628C294.719 196.908 292.067 193.272 289.397 189.617L281.367 178.662L289.526 172.412Z" fill="#FEC5B8"/>
<path d="M297.446 223.023L294.988 227.45L303.563 228.724C303.563 228.724 304.487 225.004 302.334 222.438L297.446 223.023Z" fill="#FEC5B8"/>
<path d="M293.695 233.336L300.838 234.062L303.564 228.723L294.989 227.449L293.695 233.336Z" fill="#FF8B7B"/>
<path d="M316.934 259.749L319.484 246.088C319.78 244.503 320.689 243.101 322.01 242.189C323.332 241.277 324.959 240.93 326.534 241.224L347.943 245.26C346.666 240.955 344.394 237.015 341.315 233.762C338.235 230.51 334.434 228.037 330.223 226.546C326.012 225.055 321.51 224.588 317.086 225.183C312.661 225.778 308.439 227.419 304.765 229.971L207.634 172.106C208.138 165.988 206.665 159.87 203.434 154.664C200.203 149.457 195.386 145.441 189.703 143.214C184.019 140.986 177.772 140.668 171.894 142.304C166.015 143.941 160.82 147.446 157.082 152.297L178.491 156.333C180.063 156.638 181.453 157.555 182.356 158.886C183.259 160.217 183.604 161.853 183.314 163.438L180.764 177.109C180.466 178.693 179.557 180.094 178.236 181.005C176.915 181.916 175.289 182.264 173.714 181.973L152.305 177.928C153.587 182.259 155.876 186.221 158.982 189.486C162.087 192.751 165.92 195.224 170.163 196.703C174.407 198.181 178.939 198.622 183.385 197.988C187.831 197.355 192.064 195.665 195.733 193.059L292.67 250.812C292.11 256.943 293.54 263.091 296.745 268.335C299.95 273.579 304.757 277.636 310.446 279.899C316.135 282.161 322.399 282.507 328.299 280.885C334.2 279.263 339.42 275.759 343.175 270.9L321.766 266.854C320.192 266.552 318.801 265.635 317.895 264.304C316.99 262.973 316.644 261.336 316.934 259.749Z" fill="#F26243"/>
<path d="M292.743 229.618L213.991 182.704C212.559 181.852 210.712 182.328 209.864 183.769L206.654 189.227C205.807 190.668 206.281 192.528 207.712 193.381L286.465 240.295C287.897 241.148 289.744 240.671 290.592 239.23L293.801 233.772C294.649 232.331 294.175 230.471 292.743 229.618Z" fill="#FF8B72"/>
<path opacity="0.2" d="M292.743 229.618L213.991 182.704C212.559 181.852 210.712 182.328 209.864 183.769L206.654 189.227C205.807 190.668 206.281 192.528 207.712 193.381L286.465 240.295C287.897 241.148 289.744 240.671 290.592 239.23L293.801 233.772C294.649 232.331 294.175 230.471 292.743 229.618Z" fill="#DC725C"/>
<path d="M256.634 143.508C256.541 144.057 256.19 144.438 255.839 144.438C255.488 144.438 255.266 143.89 255.35 143.35C255.433 142.811 255.793 142.42 256.144 142.467C256.495 142.513 256.717 142.969 256.634 143.508Z" fill="#263238"/>
<path d="M256.238 144.457C255.334 146.02 254.221 147.45 252.93 148.707C253.256 149.037 253.65 149.291 254.084 149.452C254.518 149.612 254.982 149.675 255.443 149.637L256.238 144.457Z" fill="#FEC5B8"/>
<path d="M259.065 140.8C259.024 140.801 258.983 140.793 258.945 140.777C258.907 140.761 258.872 140.737 258.844 140.707C258.566 140.413 258.222 140.189 257.841 140.055C257.461 139.921 257.053 139.88 256.654 139.935C256.612 139.945 256.569 139.946 256.526 139.939C256.484 139.931 256.444 139.915 256.407 139.892C256.371 139.868 256.34 139.838 256.316 139.802C256.291 139.767 256.274 139.727 256.266 139.684C256.256 139.643 256.255 139.6 256.263 139.558C256.27 139.516 256.286 139.476 256.31 139.44C256.333 139.405 256.363 139.374 256.398 139.35C256.434 139.327 256.473 139.311 256.515 139.303C257.017 139.223 257.532 139.266 258.014 139.427C258.496 139.589 258.933 139.866 259.287 140.233C259.345 140.297 259.377 140.379 259.377 140.466C259.377 140.552 259.345 140.635 259.287 140.698C259.227 140.757 259.149 140.793 259.065 140.8Z" fill="#263238"/>
<path d="M274.681 149.506C273.757 154.509 272.74 163.67 276.215 166.999C276.215 166.999 274.856 172.068 265.626 172.068C255.462 172.068 260.775 166.999 260.775 166.999C266.319 165.669 266.171 161.531 265.21 157.699L274.681 149.506Z" fill="#FEC5B8"/>
<path d="M280.898 170.757C280.786 170.593 280.701 170.41 280.649 170.218C279.872 167.251 276.611 164.935 272.379 164.814C267.916 164.703 262.88 165.242 259.905 167.716C258.593 168.804 260.043 170.394 260.043 170.394L280.898 170.757Z" fill="#FF8B72"/>
<path opacity="0.5" d="M280.898 170.757C280.786 170.593 280.701 170.41 280.649 170.218C279.872 167.251 276.611 164.935 272.379 164.814C267.916 164.703 262.88 165.242 259.905 167.716C258.593 168.804 260.043 170.394 260.043 170.394L280.898 170.757Z" fill="white"/>
<path d="M313.524 357.892H313.459C313.323 357.873 313.197 357.812 313.097 357.717C312.998 357.622 312.931 357.498 312.905 357.362C312.873 357.257 312.863 357.146 312.878 357.037C312.892 356.928 312.93 356.823 312.988 356.73C313.506 355.846 315.76 355.381 315.825 355.363C315.856 355.356 315.888 355.359 315.917 355.371C315.947 355.382 315.972 355.402 315.991 355.428C316.007 355.455 316.015 355.485 316.015 355.516C316.015 355.547 316.007 355.578 315.991 355.604C315.649 356.19 314.383 357.892 313.524 357.892ZM315.511 355.762C314.771 355.958 313.57 356.358 313.265 356.888C313.236 356.944 313.221 357.006 313.221 357.069C313.221 357.132 313.236 357.195 313.265 357.25C313.348 357.539 313.496 357.557 313.533 357.567C313.949 357.622 314.928 356.618 315.511 355.762Z" fill="#FF8B72"/>
<path d="M314.754 355.799C313.913 355.799 312.971 355.64 312.684 355.231C312.617 355.13 312.586 355.008 312.596 354.887C312.606 354.765 312.656 354.651 312.74 354.562C312.814 354.465 312.908 354.383 313.014 354.323C313.12 354.262 313.237 354.223 313.359 354.208C314.375 354.097 315.9 355.334 315.964 355.389C315.988 355.407 316.006 355.432 316.016 355.459C316.027 355.487 316.029 355.517 316.023 355.546C316.018 355.575 316.004 355.602 315.984 355.624C315.963 355.646 315.937 355.661 315.909 355.668C315.532 355.764 315.143 355.808 314.754 355.799ZM313.516 354.524H313.396C313.317 354.529 313.241 354.552 313.172 354.591C313.103 354.629 313.044 354.683 312.998 354.748C312.869 354.915 312.924 354.999 312.952 355.027C313.211 355.408 314.625 355.557 315.484 355.417C314.914 354.955 314.237 354.648 313.516 354.524Z" fill="#FF8B72"/>
<path d="M246.416 380.471C245.547 380.471 244.706 380.35 244.42 379.959C244.347 379.856 244.309 379.732 244.309 379.606C244.309 379.479 244.347 379.356 244.42 379.253C244.476 379.157 244.551 379.075 244.64 379.009C244.729 378.944 244.83 378.897 244.937 378.871C246.065 378.564 248.439 379.922 248.541 379.987C248.569 380.004 248.591 380.029 248.604 380.059C248.618 380.089 248.621 380.122 248.615 380.155C248.608 380.187 248.592 380.216 248.569 380.239C248.546 380.262 248.517 380.278 248.485 380.285C247.802 380.406 247.11 380.468 246.416 380.471ZM245.335 379.15C245.233 379.136 245.131 379.136 245.03 379.15C244.965 379.163 244.903 379.19 244.849 379.228C244.795 379.267 244.749 379.316 244.715 379.373C244.595 379.578 244.642 379.68 244.715 379.736C245.03 380.173 246.748 380.183 248.014 380.006C247.185 379.548 246.275 379.257 245.335 379.15Z" fill="#FF8B72"/>
<path d="M248.465 380.286H248.401C247.578 379.914 245.952 378.426 246.082 377.664C246.082 377.478 246.239 377.255 246.682 377.208C246.847 377.188 247.014 377.202 247.173 377.25C247.332 377.298 247.48 377.379 247.606 377.487C248.475 378.203 248.65 380.045 248.659 380.119C248.663 380.147 248.659 380.176 248.648 380.202C248.636 380.229 248.618 380.251 248.595 380.268C248.556 380.291 248.509 380.297 248.465 380.286ZM246.811 377.496H246.71C246.423 377.496 246.405 377.636 246.396 377.673C246.322 378.138 247.431 379.301 248.244 379.803C248.159 379.023 247.836 378.289 247.32 377.701C247.175 377.585 246.996 377.52 246.811 377.515V377.496Z" fill="#FF8B72"/>
<path d="M255.931 380.128H249.139L248.465 364.309H255.256L255.931 380.128Z" fill="#FF8B7B"/>
<path d="M321.932 350.656L316.425 354.655L303.434 344.574L308.941 340.584L321.932 350.656Z" fill="#FF8B7B"/>
<path d="M315.639 354.6L320.925 349.02C321.017 348.922 321.14 348.859 321.273 348.843C321.406 348.826 321.541 348.855 321.654 348.927L326.94 352.154C327.066 352.234 327.173 352.342 327.253 352.47C327.333 352.597 327.384 352.741 327.402 352.891C327.419 353.041 327.404 353.192 327.356 353.335C327.308 353.478 327.229 353.608 327.125 353.716C325.277 355.623 324.232 356.451 321.913 358.887C320.481 360.384 316.6 365.648 314.623 367.722C312.645 369.796 310.363 368.094 310.982 367.071C313.754 362.477 315.103 357.92 315.177 355.651C315.204 355.257 315.368 354.885 315.639 354.6Z" fill="#263238"/>
<path d="M249.187 379.338H256.579C256.714 379.337 256.845 379.382 256.951 379.467C257.057 379.551 257.131 379.67 257.161 379.803L258.501 385.876C258.533 386.022 258.531 386.174 258.497 386.32C258.462 386.466 258.396 386.602 258.301 386.719C258.207 386.835 258.088 386.928 257.953 386.992C257.818 387.055 257.67 387.087 257.521 387.085C254.851 387.085 250.988 386.89 247.625 386.89C243.689 386.89 240.298 387.103 235.687 387.103C232.915 387.103 232.13 384.267 233.294 384.007C238.607 382.844 242.94 382.714 247.533 379.868C248.024 379.539 248.597 379.355 249.187 379.338Z" fill="#263238"/>
<path d="M280.03 181.425C280.954 183.145 281.999 184.81 283.006 186.363C284.743 189.051 286.425 191.376 287.626 192.975C288.707 194.417 289.4 195.263 289.4 195.263L303.075 185.879C303.075 185.879 294.759 169.586 288.356 168.544C281.768 167.493 275.734 173.706 280.03 181.425Z" fill="#FF8B72"/>
<path opacity="0.5" d="M280.03 181.425C280.954 183.145 281.999 184.81 283.006 186.363C284.743 189.051 286.425 191.376 287.626 192.975C288.707 194.417 289.4 195.263 289.4 195.263L303.075 185.879C303.075 185.879 294.759 169.586 288.356 168.544C281.768 167.493 275.734 173.706 280.03 181.425Z" fill="black"/>
<path d="M283.004 186.361C284.741 189.049 286.423 191.374 287.624 192.973C287.485 189.774 286.829 184.603 284.362 180.66C283.466 181.553 283.106 183.859 283.004 186.361Z" fill="#FF8B72"/>
<path opacity="0.6" d="M283.004 186.361C284.741 189.049 286.423 191.374 287.624 192.973C287.485 189.774 286.829 184.603 284.362 180.66C283.466 181.553 283.106 183.859 283.004 186.361Z" fill="black"/>
<path d="M246.996 191.169C246.996 193.494 247.052 196.052 247.181 198.87C247.514 206.533 248.345 216.084 249.953 227.951H286.257C286.506 222.371 283.004 194.973 288.382 168.543C284.366 167.765 280.304 167.25 276.222 166.999C271.083 166.701 265.931 166.701 260.791 166.999C257.269 167.349 253.778 167.971 250.35 168.859C250.35 168.859 246.987 172.7 246.996 191.169Z" fill="#FF8B72"/>
<path opacity="0.5" d="M246.996 191.169C246.996 193.494 247.052 196.052 247.181 198.87C247.514 206.533 248.345 216.084 249.953 227.951H286.257C286.506 222.371 283.004 194.973 288.382 168.543C284.366 167.765 280.304 167.25 276.222 166.999C271.083 166.701 265.931 166.701 260.791 166.999C257.269 167.349 253.778 167.971 250.35 168.859C250.35 168.859 246.987 172.7 246.996 191.169Z" fill="black"/>
<path d="M246.996 191.17C246.996 193.495 247.052 196.052 247.181 198.87C251.441 194.685 251.727 186.139 251.727 186.139L246.996 191.17Z" fill="#FF8B72"/>
<path opacity="0.6" d="M246.996 191.17C246.996 193.495 247.052 196.052 247.181 198.87C251.441 194.685 251.727 186.139 251.727 186.139L246.996 191.17Z" fill="black"/>
<path d="M254.564 180.559C253.866 181.735 253.094 182.866 252.254 183.944C251.487 184.948 250.72 185.897 249.935 186.836C248.373 188.696 246.701 190.491 245.001 192.23C241.517 195.79 237.66 198.958 233.497 201.679C232.376 202.385 231.22 203.03 230.032 203.614L229.561 203.837L229.33 203.948L229.043 204.069C228.587 204.263 228.118 204.425 227.639 204.553L226.964 204.73L226.317 204.841C225.905 204.913 225.488 204.96 225.07 204.981C222.289 205.073 219.513 204.68 216.865 203.818C212.185 202.352 207.724 200.253 203.605 197.578L205.795 192.928C209.997 194.194 214.279 195.176 218.611 195.867C220.445 196.176 222.314 196.202 224.155 195.941C224.313 195.915 224.467 195.875 224.617 195.82L224.821 195.764L224.968 195.699C225.088 195.699 225.116 195.606 225.19 195.578L225.745 195.253C226.595 194.755 227.419 194.212 228.212 193.625C231.622 191.043 234.792 188.154 237.683 184.995C239.189 183.405 240.639 181.74 242.053 180.085C242.755 179.248 243.439 178.411 244.077 177.564C244.714 176.718 245.37 175.853 245.749 175.258L254.564 180.559Z" fill="#FEC5B8"/>
<path d="M206.792 194.183L202.283 188.789L199.215 196.675C199.215 196.675 203.105 198.535 206.136 197.457L206.792 194.183Z" fill="#FEC5B8"/>
<path d="M195.667 187.607L194.41 193.904L199.215 196.666L202.283 188.779L195.667 187.607Z" fill="#FEC5B8"/>
<path d="M260.007 176.858C259.203 183.368 244.53 197.085 244.53 197.085L231.316 186.539C234.638 181.598 238.52 177.063 242.885 173.026C252.458 164.675 260.977 169.083 260.007 176.858Z" fill="#FF8B72"/>
<path opacity="0.5" d="M260.007 176.858C259.203 183.368 244.53 197.085 244.53 197.085L231.316 186.539C234.638 181.598 238.52 177.063 242.885 173.026C252.458 164.675 260.977 169.083 260.007 176.858Z" fill="black"/>
<path d="M248.559 220.799C261.744 220.799 264.756 205.789 265.449 199.344C263.784 188.444 259.926 178.001 254.112 168.654C254.04 168.54 253.997 168.409 253.987 168.275C253.977 168.14 254 168.005 254.054 167.881C254.108 167.757 254.191 167.648 254.296 167.564C254.401 167.48 254.525 167.423 254.657 167.399L257.549 166.859C257.714 166.832 257.883 166.853 258.035 166.921C258.188 166.989 258.317 167.1 258.408 167.24C266.346 180.028 268.942 190.872 269.783 196.452H272.148C274.569 191.151 279.901 179.07 279.466 167.752C279.458 167.631 279.477 167.509 279.522 167.396C279.566 167.283 279.635 167.181 279.724 167.098C279.812 167.015 279.918 166.953 280.033 166.917C280.149 166.88 280.271 166.87 280.39 166.887L283.495 167.194C283.695 167.207 283.882 167.295 284.022 167.439C284.162 167.583 284.244 167.774 284.253 167.975C284.705 178.884 278.579 194.015 276.223 198.823C277.027 216.623 286.868 219.702 286.868 219.702C287.11 224.128 286.915 228.567 286.285 232.954C265.449 236.358 255.064 234.284 249.122 231.81C249.584 227.337 248.753 224.203 248.559 220.799Z" fill="#FF8B72"/>
<path opacity="0.3" d="M248.559 220.799C261.744 220.799 264.756 205.789 265.449 199.344C263.784 188.444 259.926 178.001 254.112 168.654C254.04 168.54 253.997 168.409 253.987 168.275C253.977 168.14 254 168.005 254.054 167.881C254.108 167.757 254.191 167.648 254.296 167.564C254.401 167.48 254.525 167.423 254.657 167.399L257.549 166.859C257.714 166.832 257.883 166.853 258.035 166.921C258.188 166.989 258.317 167.1 258.408 167.24C266.346 180.028 268.942 190.872 269.783 196.452H272.148C274.569 191.151 279.901 179.07 279.466 167.752C279.458 167.631 279.477 167.509 279.522 167.396C279.566 167.283 279.635 167.181 279.724 167.098C279.812 167.015 279.918 166.953 280.033 166.917C280.149 166.88 280.271 166.87 280.39 166.887L283.495 167.194C283.695 167.207 283.882 167.295 284.022 167.439C284.162 167.583 284.244 167.774 284.253 167.975C284.705 178.884 278.579 194.015 276.223 198.823C277.027 216.623 286.868 219.702 286.868 219.702C287.11 224.128 286.915 228.567 286.285 232.954C265.449 236.358 255.064 234.284 249.122 231.81C249.584 227.337 248.753 224.203 248.559 220.799Z" fill="black"/>
<path d="M248.465 364.309L248.816 372.465H255.607L255.256 364.309H248.465Z" fill="#FEC5B8"/>
<path d="M308.952 340.584L303.445 344.583L310.144 349.772L315.651 345.773L308.952 340.584Z" fill="#FEC5B8"/>
<path d="M274.854 145.201C273.403 151.823 272.886 155.775 268.995 158.677C263.147 163.048 255.422 158.677 254.877 151.767C254.387 145.536 256.836 135.752 263.756 134.097C265.28 133.742 266.867 133.782 268.371 134.213C269.875 134.644 271.245 135.453 272.354 136.562C273.463 137.672 274.274 139.046 274.711 140.557C275.148 142.068 275.197 143.666 274.854 145.201Z" fill="#FEC5B8"/>
<path d="M280.72 134.924C286.495 135.082 284.121 138.142 281.229 139.825C281.229 139.825 284.564 141.434 282.846 145.275C280.24 151.106 275.25 157.514 270.159 157.161C263.82 156.724 262.019 149.786 262.25 142.941C258.905 139.77 258.341 138.021 257.824 134.208C256.779 126.647 261.492 122.49 280.72 134.924Z" fill="#263238"/>
<path d="M273.283 122.182C277.237 123.203 280.626 125.762 282.705 129.297C284.784 132.832 285.384 137.054 284.371 141.033L254.535 133.37C255.035 131.396 255.917 129.54 257.13 127.909C258.343 126.278 259.864 124.904 261.605 123.865C263.346 122.826 265.274 122.142 267.278 121.854C269.282 121.565 271.322 121.677 273.283 122.182Z" fill="#FF8B72"/>
<path opacity="0.5" d="M273.283 122.182C277.237 123.203 280.626 125.762 282.705 129.297C284.784 132.832 285.384 137.054 284.371 141.033L254.535 133.37C255.035 131.396 255.917 129.54 257.13 127.909C258.343 126.278 259.864 124.904 261.605 123.865C263.346 122.826 265.274 122.142 267.278 121.854C269.282 121.565 271.322 121.677 273.283 122.182Z" fill="white"/>
<path d="M279.178 141.052C278.971 141.055 278.767 141.01 278.581 140.92C278.395 140.83 278.233 140.698 278.106 140.534C277.98 140.369 277.893 140.178 277.853 139.974C277.813 139.77 277.82 139.56 277.875 139.36C278.29 137.671 278.347 135.913 278.043 134.2C277.739 132.487 277.08 130.858 276.11 129.418C274.034 126.274 270.857 124.032 267.212 123.141C266.865 123.052 266.568 122.828 266.385 122.518C266.202 122.209 266.149 121.839 266.237 121.49C266.325 121.141 266.548 120.841 266.855 120.657C267.163 120.473 267.53 120.42 267.877 120.509C272.178 121.572 275.923 124.229 278.364 127.949C279.54 129.702 280.337 131.684 280.703 133.767C281.069 135.849 280.996 137.986 280.49 140.039C280.414 140.33 280.244 140.588 280.006 140.772C279.769 140.955 279.477 141.054 279.178 141.052Z" fill="#FF8B72"/>
<path opacity="0.3" d="M279.178 141.052C278.971 141.055 278.767 141.01 278.581 140.92C278.395 140.83 278.233 140.698 278.106 140.534C277.98 140.369 277.893 140.178 277.853 139.974C277.813 139.77 277.82 139.56 277.875 139.36C278.29 137.671 278.347 135.913 278.043 134.2C277.739 132.487 277.08 130.858 276.11 129.418C274.034 126.274 270.857 124.032 267.212 123.141C266.865 123.052 266.568 122.828 266.385 122.518C266.202 122.209 266.149 121.839 266.237 121.49C266.325 121.141 266.548 120.841 266.855 120.657C267.163 120.473 267.53 120.42 267.877 120.509C272.178 121.572 275.923 124.229 278.364 127.949C279.54 129.702 280.337 131.684 280.703 133.767C281.069 135.849 280.996 137.986 280.49 140.039C280.414 140.33 280.244 140.588 280.006 140.772C279.769 140.955 279.477 141.054 279.178 141.052Z" fill="#FC7373"/>
<path d="M250.406 133.772L285.518 142.793C285.883 142.886 286.27 142.829 286.594 142.636C286.918 142.442 287.152 142.127 287.246 141.76C287.339 141.392 287.283 141.001 287.091 140.673C286.899 140.346 286.586 140.108 286.22 140.012L251.108 130.991C250.741 130.898 250.352 130.955 250.026 131.15C249.7 131.346 249.465 131.663 249.371 132.032C249.326 132.215 249.316 132.405 249.343 132.591C249.371 132.777 249.434 132.956 249.53 133.118C249.626 133.279 249.753 133.42 249.904 133.532C250.054 133.645 250.225 133.726 250.406 133.772Z" fill="#FF8B72"/>
<path opacity="0.3" d="M250.406 133.772L285.518 142.793C285.883 142.886 286.27 142.829 286.594 142.636C286.918 142.442 287.152 142.127 287.246 141.76C287.339 141.392 287.283 141.001 287.091 140.673C286.899 140.346 286.586 140.108 286.22 140.012L251.108 130.991C250.741 130.898 250.352 130.955 250.026 131.15C249.7 131.346 249.465 131.663 249.371 132.032C249.326 132.215 249.316 132.405 249.343 132.591C249.371 132.777 249.434 132.956 249.53 133.118C249.626 133.279 249.753 133.42 249.904 133.532C250.054 133.645 250.225 133.726 250.406 133.772Z" fill="#FE8472"/>
<path d="M265.715 144.577C265.542 146.253 264.82 147.823 263.663 149.041C262.129 150.631 260.614 149.562 260.42 147.553C260.245 145.749 260.836 142.745 262.675 141.908C264.513 141.071 265.909 142.559 265.715 144.577Z" fill="#FEC5B8"/>
<path d="M262.814 227.951C262.814 227.951 262.029 276.572 268.1 295.637C277.719 325.834 306.769 350.293 306.769 350.293L317.155 342.75C317.155 342.75 292.965 322.086 288.529 296.669C284.547 273.819 286.238 246.635 286.238 227.97L262.814 227.951Z" fill="#FF8B72"/>
<path opacity="0.3" d="M262.814 227.951C262.814 227.951 262.029 276.572 268.1 295.637C277.719 325.834 306.769 350.293 306.769 350.293L317.155 342.75C317.155 342.75 292.965 322.086 288.529 296.669C284.547 273.819 286.238 246.635 286.238 227.97L262.814 227.951Z" fill="black"/>
<path d="M269.59 236.302C270.874 245.063 266.337 269.457 264.766 277.445C263.122 262.51 262.817 244.793 262.789 235.121C266.115 232.852 268.998 232.266 269.59 236.302Z" fill="#FF8B72"/>
<path opacity="0.4" d="M269.59 236.302C270.874 245.063 266.337 269.457 264.766 277.445C263.122 262.51 262.817 244.793 262.789 235.121C266.115 232.852 268.998 232.266 269.59 236.302Z" fill="black"/>
<path d="M302.325 348.089C302.278 348.089 306.593 350.647 306.593 350.647L317.931 342.407L314.161 339.496L302.325 348.089Z" fill="#FF8B72"/>
<path opacity="0.4" d="M302.325 348.089C302.278 348.089 306.593 350.647 306.593 350.647L317.931 342.407L314.161 339.496L302.325 348.089Z" fill="white"/>
<path d="M249.935 227.951C249.935 227.951 239.706 271.568 238.986 292.4C238.182 315.771 246.285 370.883 246.285 370.883H257.798C257.798 370.883 259.221 315.343 259.73 294.056C260.284 270.852 273.821 227.951 273.821 227.951H249.935Z" fill="#FF8B72"/>
<path opacity="0.3" d="M249.935 227.951C249.935 227.951 239.706 271.568 238.986 292.4C238.182 315.771 246.285 370.883 246.285 370.883H257.798C257.798 370.883 259.221 315.343 259.73 294.056C260.284 270.852 273.821 227.951 273.821 227.951H249.935Z" fill="black"/>
<path d="M244.069 366.271C244.022 366.271 244.725 371.08 244.725 371.08H258.723L259.102 366.792L244.069 366.271Z" fill="#FF8B72"/>
<path opacity="0.4" d="M244.069 366.271C244.022 366.271 244.725 371.08 244.725 371.08H258.723L259.102 366.792L244.069 366.271Z" fill="white"/>
</svg>
